<svg width="30" height="30" viewBox="0 0 30 30" fill="none" xmlns="http://www.w3.org/2000/svg">
<path fill-rule="evenodd" clip-rule="evenodd" d="M1 15C1 22.7326 7.26857 29 15 29C22.7314 29 29 22.7326 29 15C29 7.26743 22.7314 1 15 1C7.26857 1 1 7.26743 1 15Z" fill="white" stroke="#DADADA"/>
<path fill-rule="evenodd" clip-rule="evenodd" d="M10 9.47501C10 9.21259 10.2403 9 10.5362 9H12.9635C13.2594 9 13.4997 9.21234 13.5 9.47501V20.5247C13.5 20.7871 13.2594 21 12.9635 21H10.5362C10.2403 21 10 20.7871 10 20.5247V9.47501ZM17.0365 9H19.4635C19.7597 9 20 9.21234 20 9.47501V20.5247C20 20.7871 19.7597 21 19.4635 21H17.0365C16.7403 21 16.5 20.7871 16.5 20.5247V9.47501C16.5 9.21259 16.7403 9 17.0365 9Z" fill="#CFCFCF"/>
</svg>
