<svg width="30" height="30" viewBox="0 0 30 30" fill="none" xmlns="http://www.w3.org/2000/svg">
<path fill-rule="evenodd" clip-rule="evenodd" d="M1 15C1 22.7326 7.26857 29 15 29C22.7314 29 29 22.7326 29 15C29 7.26743 22.7314 1 15 1C7.26857 1 1 7.26743 1 15Z" fill="white" stroke="#DADADA"/>
<path d="M21.7876 9.76931C21.6098 9.63168 21.367 9.61382 21.1698 9.7239L19.3094 10.7624C18.0597 9.51775 16.2797 8.83845 14.3989 9.03289C11.3891 9.34403 9.05545 11.8823 9.001 14.89C8.94019 18.2486 11.6707 21 15.0355 21C17.2844 21 19.3207 19.7692 20.3631 17.8225C20.5018 17.5635 20.3911 17.241 20.1216 17.1213C19.8704 17.0097 19.6435 16.9126 19.4061 16.8171C19.1235 16.7034 18.8049 16.8206 18.6522 17.0829C17.9113 18.3558 16.5423 19.1538 15.0355 19.1538C12.6046 19.1538 10.6519 17.0795 10.8744 14.6179C11.0448 12.732 12.5109 11.1779 14.3941 10.8944C15.5807 10.7157 16.7222 11.0436 17.5974 11.7181L15.7423 12.7536C15.5463 12.863 15.435 13.078 15.4621 13.3003C15.4876 13.5234 15.6462 13.7072 15.8648 13.7685L20.1026 14.9515C20.3985 15.0322 20.7053 14.8609 20.7901 14.5678L21.9801 10.3549C22.0401 10.138 21.9613 9.90965 21.7876 9.76931Z" fill="#CFCFCF"/>
</svg>
