<svg width="44" height="44" viewBox="0 0 44 44" fill="none" xmlns="http://www.w3.org/2000/svg">
<path fill-rule="evenodd" clip-rule="evenodd" d="M0 22C0 34.1512 9.85061 44 22 44C34.1494 44 44 34.1512 44 22C44 9.84882 34.1494 0 22 0C9.85061 0 0 9.84882 0 22Z" fill="#FD7979"/>
<path fill-rule="evenodd" clip-rule="evenodd" d="M30.3424 20.9875L19.6784 13.4388C19.2883 13.1627 18.7703 13.1226 18.3424 13.3363C17.912 13.5496 17.641 13.9806 17.641 14.4513V29.5492C17.641 30.0195 17.912 30.45 18.3424 30.6638C18.5258 30.7547 18.7251 30.8 18.9248 30.8C19.1905 30.8 19.4559 30.7194 19.6788 30.5609L30.3428 23.0117C30.6762 22.7758 30.8718 22.4 30.8718 21.9992C30.8714 21.5988 30.6745 21.2231 30.3424 20.9875Z" fill="white"/>
</svg>
