<svg width="46" height="46" viewBox="0 0 46 46" fill="none" xmlns="http://www.w3.org/2000/svg">
<path fill-rule="evenodd" clip-rule="evenodd" d="M1 23C1 35.1512 10.8506 45 23 45C35.1494 45 45 35.1512 45 23C45 10.8488 35.1494 1 23 1C10.8506 1 1 10.8488 1 23Z" stroke="#FD7979"/>
<path fill-rule="evenodd" clip-rule="evenodd" d="M31.3424 21.9875L20.6784 14.4388C20.2883 14.1627 19.7703 14.1226 19.3424 14.3363C18.912 14.5496 18.641 14.9806 18.641 15.4513V30.5492C18.641 31.0195 18.912 31.45 19.3424 31.6638C19.5258 31.7547 19.7251 31.8 19.9248 31.8C20.1905 31.8 20.4559 31.7194 20.6788 31.5609L31.3428 24.0117C31.6762 23.7758 31.8718 23.4 31.8718 22.9992C31.8714 22.5988 31.6745 22.2231 31.3424 21.9875Z" fill="#FD7979"/>
</svg>
